<svg version="1.1" id="Layer_1" xmlns="http://www.w3.org/2000/svg" xmlns:xlink="http://www.w3.org/1999/xlink" x="0px" y="0px"
	 width="100%" viewBox="0 0 365 365" xml:space="preserve">

<path fill="#FFFFFF" opacity="1.000000" stroke="none" 
	d="
M295.799286,212.711914 
	C285.466339,221.622742 273.353577,225.500778 260.527283,226.858795 
	C250.715179,227.897659 240.770187,227.735626 230.880920,227.957138 
	C227.982071,228.022049 226.153015,228.685455 223.934402,231.162689 
	C217.266479,238.607880 209.346008,244.668549 200.220367,249.113205 
	C198.063354,250.163788 195.887497,252.573807 195.117233,254.834427 
	C191.549454,265.305389 183.560135,268.370178 173.477356,264.242065 
	C163.584824,260.191864 153.447479,256.741791 143.451874,252.938202 
	C142.292938,252.497208 140.454117,251.476929 140.457596,250.732330 
	C140.479553,246.012802 136.382965,246.223953 133.768661,245.140381 
	C130.457367,243.767899 129.929047,241.935165 130.943359,238.818298 
	C133.856613,229.866180 138.983124,226.755157 149.112549,228.062927 
	C150.916000,228.295761 152.697357,228.699875 155.170227,229.148483 
	C149.794174,220.441498 150.303864,212.016281 153.139328,203.335678 
	C153.584885,201.971619 152.655487,199.881561 151.830124,198.429382 
	C148.966095,193.390213 145.595764,188.623215 142.964035,183.473633 
	C141.468338,180.546951 140.153625,178.340149 136.553375,177.736664 
	C133.920700,177.295334 131.465500,175.795258 128.947418,174.773697 
	C125.810081,181.797043 120.923462,183.761948 114.155510,180.971497 
	C109.305885,178.971970 107.559563,172.622528 110.162781,166.545334 
	C110.862167,164.912613 111.304764,163.145676 112.169785,161.612122 
	C117.001816,153.045578 124.058403,150.830551 133.364822,154.780670 
	C135.104126,155.518936 136.941956,156.025070 138.999603,156.729080 
	C138.999603,154.879532 138.942947,153.383347 139.009293,151.892624 
	C139.316681,144.984314 139.328110,144.923950 131.983383,145.021667 
	C127.035675,145.087479 122.091255,145.374481 117.144318,145.528656 
	C107.913963,145.816360 101.437752,140.760559 98.916420,131.805923 
	C98.469429,130.218399 96.766563,128.255859 95.251282,127.814987 
	C84.719482,124.750801 82.134140,107.595146 88.846832,99.512939 
	C93.078331,94.418137 98.845604,92.881210 104.579254,91.256691 
	C113.156059,88.826637 121.886909,86.940804 130.550644,84.816963 
	C144.792664,81.325653 163.252777,88.511368 170.086746,102.559044 
	C172.411667,107.338081 174.116440,112.426811 175.982132,117.419785 
	C182.505157,134.876755 194.112305,147.678955 210.757767,156.069092 
	C220.414444,160.936523 230.283325,165.549911 239.331802,171.399063 
	C245.489822,175.379776 250.701294,181.013107 255.779144,186.429520 
	C262.348999,193.437439 270.459930,197.577423 279.609985,198.556519 
	C285.014160,199.134811 290.702972,196.784424 296.297729,195.990021 
	C298.362885,195.696777 301.556274,195.287476 302.392212,196.363190 
	C303.533142,197.831421 303.743744,201.084259 302.870819,202.831345 
	C301.135345,206.304657 298.387604,209.272171 295.799286,212.711914 
M157.997040,101.496696 
	C151.023300,94.354034 142.566574,91.612198 132.859055,93.740822 
	C124.327026,95.611671 115.905182,97.994614 107.459946,100.246193 
	C104.659180,100.992897 101.711243,101.630875 99.224716,103.022690 
	C93.660881,106.137001 93.500786,109.212372 95.272873,115.943535 
	C95.721207,117.646484 98.930618,119.601860 100.954849,119.698952 
	C104.726051,119.879852 108.542374,118.607635 112.368874,118.250557 
	C121.442993,117.403793 130.533234,116.728264 139.618698,116.005585 
	C142.703171,115.760239 144.747437,116.832626 145.013733,120.265343 
	C145.304901,124.018761 142.540176,124.650490 139.952637,124.941620 
	C129.442429,126.124092 118.909126,127.101357 108.416611,128.151077 
	C108.171837,132.894409 110.275940,135.957840 114.242958,135.931976 
	C122.661919,135.877060 131.107483,135.801682 139.487488,135.090515 
	C147.051483,134.448593 149.119476,135.768097 148.956940,143.321991 
	C148.853912,148.110077 148.249756,152.885941 148.064362,157.674789 
	C148.022522,158.755692 148.802780,159.862564 149.177216,160.966751 
	C149.819061,162.859482 151.444016,165.291977 150.797134,166.512619 
	C150.095413,167.836761 147.027039,168.966812 145.416733,168.547073 
	C140.903427,167.370682 136.570282,165.446732 132.237640,163.645477 
	C123.479286,160.004257 119.209549,162.864716 118.612282,173.467957 
	C119.286072,172.695602 119.689758,172.304626 120.010384,171.854477 
	C124.252037,165.899170 127.776665,164.616760 134.551300,167.045715 
	C141.105209,169.395538 147.600662,171.923325 154.042068,174.567154 
	C158.779953,176.511810 159.299515,178.983337 155.750488,182.655991 
	C153.925003,184.545059 153.421021,185.883652 155.439728,188.051468 
	C159.081268,191.962051 162.416656,196.157715 165.879929,200.234314 
	C167.623199,198.680328 168.204971,198.464523 168.353958,198.080688 
	C171.788177,189.234695 178.416687,182.953964 185.536713,177.204788 
	C186.761414,176.215866 189.533340,176.401703 191.228180,177.027039 
	C192.176224,177.376801 193.131332,180.004745 192.738937,181.142563 
	C192.174637,182.778976 190.481949,184.097458 189.104034,185.371124 
	C175.016312,198.392868 166.985809,215.583939 175.476807,235.996841 
	C177.864395,241.736771 173.861267,247.738800 167.499619,247.927994 
	C163.621506,248.043365 159.722900,247.469788 155.833496,247.205658 
	C162.221542,250.231461 168.868958,252.306702 175.168503,255.152115 
	C182.259628,258.355072 184.160751,258.093445 186.967255,249.632675 
	C188.127075,246.136169 189.889267,243.640274 193.516159,241.962692 
	C203.481705,237.353271 212.327286,231.198517 219.265717,222.382812 
	C224.112640,216.224503 227.199112,209.383102 228.868393,201.908997 
	C229.740204,198.005539 232.614929,198.545868 234.543259,199.267685 
	C235.896942,199.774414 237.421005,202.684906 237.134262,204.191833 
	C236.182938,209.191269 234.446503,214.041306 233.030685,218.882111 
	C251.137161,219.626770 269.231537,218.786346 285.024292,209.301956 
	C277.848785,207.135757 270.424622,205.218796 263.238007,202.639908 
	C254.931244,199.659012 249.688080,192.558395 243.289017,186.966797 
	C237.434784,181.851288 231.109375,177.115479 224.445816,173.123322 
	C214.643265,167.250565 203.769836,163.034729 194.419189,156.570267 
	C182.024323,148.001251 173.095474,136.203171 167.822220,121.746132 
	C165.337738,114.934731 164.810913,107.064796 157.997040,101.496696 
M160.002365,214.551743 
	C160.682266,217.484833 161.362167,220.417938 162.042068,223.351028 
	C162.386932,223.275848 162.731796,223.200668 163.076660,223.125473 
	C163.076660,217.885178 163.076660,212.644882 163.076660,207.404572 
	C162.642441,207.382187 162.208237,207.359818 161.774017,207.337433 
	C161.185165,209.462402 160.596313,211.587387 160.002365,214.551743 
M163.471268,238.998917 
	C164.454834,238.998917 165.438400,238.998917 166.725677,238.998917 
	C165.881210,236.426956 165.136017,234.157318 164.318558,231.667633 
	C161.807159,233.989532 159.749359,235.892075 157.806854,237.688004 
	C159.316498,238.093155 160.993423,238.543182 163.471268,238.998917 
z"/>



<path fill="#FFFFFF" opacity="1.000000" stroke="none" 
	d="
M130.968933,108.213173 
	C129.947403,110.198845 128.760376,113.188141 127.884560,113.099594 
	C126.014923,112.910568 124.066422,111.347404 122.690269,109.850693 
	C122.316780,109.444473 123.541473,106.877090 124.604416,105.976379 
	C127.378792,103.625412 129.371689,105.308304 130.968933,108.213173 
z"/>
</svg>