<svg id="svg" version="1.1" xmlns="http://www.w3.org/2000/svg" xmlns:xlink="http://www.w3.org/1999/xlink" width="400" height="273.2510288065844" viewBox="0, 0, 400,273.2510288065844"><g id="svgg"><path id="path0" d="M81.021 13.373 C 63.290 16.288,13.060 50.719,5.803 64.932 C -3.975 84.084,7.991 109.431,27.816 111.562 C 33.883 112.214,36.321 113.485,40.066 117.951 C 52.819 133.158,60.484 132.534,106.361 112.552 C 107.369 112.113,108.648 113.831,109.202 116.371 C 109.756 118.910,110.683 122.654,111.263 124.691 C 112.273 128.236,111.897 128.395,102.493 128.395 C 80.917 128.395,67.446 150.497,76.221 171.499 C 82.863 187.397,106.460 185.806,109.774 169.238 C 111.485 160.683,127.622 162.346,137.831 172.130 C 142.147 176.267,149.568 181.877,154.321 184.597 C 162.803 189.451,162.963 189.684,162.979 197.240 C 162.996 205.502,168.976 220.446,174.717 226.574 L 178.023 230.103 167.222 233.697 C 144.725 241.183,140.212 269.959,161.534 269.959 C 164.929 269.959,168.165 270.700,168.724 271.605 C 169.358 272.630,184.900 273.251,209.890 273.251 L 250.038 273.251 254.555 267.329 C 258.026 262.779,259.242 259.065,259.803 251.301 C 260.467 242.123,261.242 240.363,268.248 232.120 C 278.281 220.316,285.367 208.802,289.605 197.417 L 293.018 188.250 304.945 184.413 C 356.844 167.718,396.561 132.046,396.690 102.012 C 396.744 89.307,388.068 87.708,374.453 97.915 C 352.665 114.251,335.476 114.524,300.412 99.093 C 283.963 91.854,275.253 89.767,251.029 87.259 C 209.784 82.989,203.436 81.629,186.737 73.479 C 171.019 65.808,156.423 54.435,146.730 42.305 C 127.305 17.995,107.078 9.089,81.021 13.373 M111.769 34.933 C 116.860 37.468,123.181 43.311,131.271 52.958 C 158.762 85.745,185.176 98.228,238.537 103.652 C 268.901 106.739,279.583 109.534,307.819 121.777 C 325.964 129.645,349.311 130.619,366.255 124.216 C 382.877 117.934,340.673 148.636,318.526 158.937 C 294.852 169.948,296.736 170.370,296.056 153.906 C 295.429 138.726,294.271 136.698,286.210 136.651 C 279.289 136.610,277.826 139.901,279.085 152.674 C 281.376 175.925,268.070 206.969,247.416 226.559 C 242.339 231.375,241.975 232.440,241.975 242.491 C 241.975 257.646,240.860 258.454,220.047 258.364 C 203.730 258.294,203.460 258.232,209.707 256.006 C 223.493 251.092,226.327 236.614,215.839 224.669 C 197.422 203.693,194.907 177.541,208.513 148.481 C 215.932 132.634,213.416 124.471,201.997 127.337 C 195.474 128.974,182.716 158.907,182.716 172.573 C 182.716 177.492,177.824 176.609,165.223 169.417 L 156.784 164.599 157.600 157.360 C 158.784 146.860,156.521 146.083,126.751 146.766 C 99.800 147.385,96.937 148.427,93.951 158.714 L 92.478 163.786 92.330 157.868 C 92.073 147.653,95.861 145.812,119.095 144.856 L 139.095 144.033 139.095 137.497 C 139.095 132.209,138.326 130.578,135.069 128.954 C 131.032 126.942,129.768 124.032,123.758 102.915 C 119.493 87.929,117.588 87.778,89.051 100.168 C 64.412 110.866,58.948 112.006,53.956 107.489 C 50.994 104.808,51.967 104.127,76.872 91.439 C 100.361 79.473,102.932 77.741,103.411 73.563 C 104.954 60.108,96.342 61.227,61.458 79.012 C 30.105 94.997,27.618 95.737,24.078 90.123 C 16.131 77.522,18.571 73.360,45.552 53.498 C 80.559 27.727,91.265 24.726,111.769 34.933 M61.683 57.663 C 56.976 62.865,60.033 69.790,67.347 70.492 C 73.502 71.083,75.656 69.013,75.695 62.469 C 75.744 54.298,67.338 51.414,61.683 57.663 M184.873 204.938 L 185.873 209.877 183.546 204.938 C 182.266 202.222,181.232 198.519,181.249 196.708 L 181.279 193.416 182.576 196.708 C 183.289 198.519,184.323 202.222,184.873 204.938 M201.531 238.870 C 200.637 240.316,195.885 240.965,195.885 239.641 C 195.885 236.027,198.152 233.857,200.174 235.535 C 201.416 236.566,202.027 238.067,201.531 238.870 " stroke="none" fill="#FFFFFF" fill-rule="evenodd"></path></g></svg>
