<svg width="90" height="90" viewBox="0 0 90 90" fill="none" xmlns="http://www.w3.org/2000/svg">
<path d="M74.0932 70.8556C41.0733 86.5701 20.5808 73.4223 7.46285 65.4365C6.65112 64.9332 5.27146 65.5542 6.46851 66.9291C10.8387 72.2281 25.1609 85 43.8555 85C62.563 85 73.6922 74.7925 75.0844 73.0118C76.4672 71.2463 75.4907 70.2723 74.0932 70.8556ZM83.3668 65.7343C82.48 64.5796 77.9749 64.3644 75.1396 64.7127C72.3 65.0509 68.0377 66.7864 68.4083 67.8284C68.5984 68.2187 68.9865 68.0436 70.9373 67.8682C72.8933 67.6731 78.3731 66.9815 79.5149 68.4741C80.662 69.9771 77.7672 77.1367 77.2385 78.2913C76.7276 79.446 77.4336 79.7438 78.3931 78.9747C79.3395 78.206 81.0527 76.2151 82.2024 73.3978C83.3442 70.5651 84.0407 66.6135 83.3668 65.7343Z" fill="#FF9900"/>
<path fill-rule="evenodd" clip-rule="evenodd" d="M51.8909 38.7904C51.8909 42.9136 51.9951 46.3522 49.911 50.0139C48.2289 52.9912 45.5643 54.8221 42.5872 54.8221C38.5232 54.8221 36.1565 51.7258 36.1565 47.1561C36.1565 38.1352 44.2392 36.498 51.8909 36.498V38.7904ZM62.5639 64.5872C61.8642 65.2122 60.852 65.2571 60.0631 64.8401C56.5501 61.9226 55.9248 60.5681 53.9897 57.7843C48.1843 63.7089 44.0758 65.4801 36.5436 65.4801C27.6419 65.4801 20.705 59.9873 20.705 48.9869C20.705 40.3981 25.3645 34.5479 31.9883 31.6901C37.7344 29.1592 45.7579 28.7127 51.8909 28.0134V26.6438C51.8909 24.128 52.0842 21.1509 50.6107 18.9778C49.3155 17.0277 46.8445 16.2238 44.671 16.2238C40.6371 16.2238 37.0347 18.2928 36.1565 22.5798C35.9776 23.5327 35.2782 24.4706 34.3256 24.5152L24.0542 23.4138C23.191 23.2199 22.2384 22.5205 22.4766 21.1955C24.8434 8.75142 36.0818 5 46.1445 5C51.2951 5 58.0233 6.3696 62.0873 10.2697C67.2379 15.0776 66.7465 21.4932 66.7465 28.4746V44.9678C66.7465 49.9248 68.8008 52.0979 70.7358 54.7775C71.4205 55.7301 71.5695 56.8766 70.706 57.5908C68.5476 59.3918 64.707 62.7413 62.5934 64.617L62.5639 64.5872Z" fill="#000008"/>
<path d="M74.0932 70.8556C41.0733 86.5701 20.5808 73.4223 7.46285 65.4365C6.65112 64.9332 5.27146 65.5542 6.46851 66.9291C10.8387 72.2281 25.1609 85 43.8555 85C62.563 85 73.6922 74.7925 75.0844 73.0118C76.4672 71.2463 75.4907 70.2723 74.0932 70.8556ZM83.3668 65.7343C82.48 64.5796 77.9749 64.3644 75.1396 64.7127C72.3 65.0509 68.0377 66.7864 68.4083 67.8284C68.5984 68.2187 68.9865 68.0436 70.9373 67.8682C72.8933 67.6731 78.3731 66.9815 79.5149 68.4741C80.662 69.9771 77.7672 77.1367 77.2385 78.2913C76.7276 79.446 77.4336 79.7438 78.3931 78.9747C79.3395 78.206 81.0527 76.2151 82.2024 73.3978C83.3442 70.5651 84.0407 66.6135 83.3668 65.7343Z" fill="#FF9900"/>
<path fill-rule="evenodd" clip-rule="evenodd" d="M51.8909 38.7904C51.8909 42.9136 51.9951 46.3522 49.911 50.0139C48.2289 52.9912 45.5643 54.8221 42.5872 54.8221C38.5232 54.8221 36.1565 51.7258 36.1565 47.1561C36.1565 38.1352 44.2392 36.498 51.8909 36.498V38.7904ZM62.5639 64.5872C61.8642 65.2122 60.852 65.2571 60.0631 64.8401C56.5501 61.9226 55.9248 60.5681 53.9897 57.7843C48.1843 63.7089 44.0758 65.4801 36.5436 65.4801C27.6419 65.4801 20.705 59.9873 20.705 48.9869C20.705 40.3981 25.3645 34.5479 31.9883 31.6901C37.7344 29.1592 45.7579 28.7127 51.8909 28.0134V26.6438C51.8909 24.128 52.0842 21.1509 50.6107 18.9778C49.3155 17.0277 46.8445 16.2238 44.671 16.2238C40.6371 16.2238 37.0347 18.2928 36.1565 22.5798C35.9776 23.5327 35.2782 24.4706 34.3256 24.5152L24.0542 23.4138C23.191 23.2199 22.2384 22.5205 22.4766 21.1955C24.8434 8.75142 36.0818 5 46.1445 5C51.2951 5 58.0233 6.3696 62.0873 10.2697C67.2379 15.0776 66.7465 21.4932 66.7465 28.4746V44.9678C66.7465 49.9248 68.8008 52.0979 70.7358 54.7775C71.4205 55.7301 71.5695 56.8766 70.706 57.5908C68.5476 59.3918 64.707 62.7413 62.5934 64.617L62.5639 64.5872Z" fill="#000008"/>
</svg>
