<svg width="90" height="90" viewBox="0 0 90 90" fill="none" xmlns="http://www.w3.org/2000/svg">
<path d="M27.5415 38.3743C27.5415 39.3587 27.648 40.1569 27.8342 40.7423C28.0471 41.3276 28.3131 41.9662 28.6856 42.658C28.8187 42.8708 28.8719 43.0837 28.8719 43.27C28.8719 43.536 28.7122 43.8021 28.3664 44.0682L26.6901 45.1856C26.4507 45.3453 26.2112 45.4251 25.9983 45.4251C25.7323 45.4251 25.4662 45.2921 25.2001 45.0526C24.8276 44.6535 24.5083 44.2278 24.2423 43.8021C23.9762 43.3498 23.7101 42.8442 23.4175 42.2323C21.3421 44.6801 18.7346 45.904 15.595 45.904C13.36 45.904 11.5773 45.2655 10.2736 43.9883C8.96985 42.7112 8.30467 41.0084 8.30467 38.8798C8.30467 36.6182 9.10288 34.7824 10.7259 33.3988C12.3489 32.0152 14.5041 31.3235 17.2446 31.3235C18.1493 31.3235 19.0805 31.4033 20.065 31.5363C21.0494 31.6694 22.0605 31.8822 23.1248 32.1217V30.1794C23.1248 28.1572 22.6991 26.7471 21.8742 25.9223C21.0228 25.0975 19.586 24.6984 17.5373 24.6984C16.6061 24.6984 15.6482 24.8048 14.6637 25.0442C13.6793 25.2837 12.7214 25.5764 11.7902 25.9489C11.3645 26.1351 11.0452 26.2416 10.8589 26.2948C10.6727 26.348 10.5397 26.3746 10.4332 26.3746C10.0607 26.3746 9.87449 26.1085 9.87449 25.5498V24.246C9.87449 23.8203 9.9277 23.501 10.0607 23.3148C10.1938 23.1285 10.4332 22.9423 10.8057 22.7561C11.737 22.2771 12.8545 21.878 14.1582 21.5587C15.462 21.2129 16.8455 21.0532 18.3089 21.0532C21.4751 21.0532 23.79 21.7716 25.2799 23.2084C26.7433 24.6451 27.4883 26.8269 27.4883 29.7537V38.3743H27.5415ZM16.7391 42.4185C17.6171 42.4185 18.5218 42.2589 19.4796 41.9396C20.4375 41.6203 21.2889 41.035 22.0073 40.2368C22.433 39.7312 22.7523 39.1725 22.9119 38.5339C23.0716 37.8954 23.178 37.1238 23.178 36.2191V35.1016C22.4064 34.9154 21.5816 34.7558 20.7301 34.6493C19.8787 34.5429 19.0539 34.4897 18.2291 34.4897C16.4464 34.4897 15.1427 34.8356 14.2646 35.554C13.3866 36.2723 12.9609 37.2834 12.9609 38.6137C12.9609 39.8643 13.2802 40.7955 13.9454 41.4341C14.5839 42.0992 15.5152 42.4185 16.7391 42.4185ZM38.1045 45.2921C37.6256 45.2921 37.3063 45.2123 37.0935 45.026C36.8806 44.8664 36.6944 44.4939 36.5347 43.9883L30.2821 23.4212C30.1224 22.8891 30.0426 22.5432 30.0426 22.357C30.0426 21.9312 30.2555 21.6918 30.6812 21.6918H33.2887C33.7942 21.6918 34.1401 21.7716 34.3263 21.9578C34.5392 22.1175 34.6988 22.49 34.8585 22.9955L39.3284 40.6093L43.4791 22.9955C43.6122 22.4634 43.7718 22.1175 43.9847 21.9578C44.1975 21.7982 44.57 21.6918 45.0489 21.6918H47.1775C47.683 21.6918 48.0289 21.7716 48.2418 21.9578C48.4546 22.1175 48.6409 22.49 48.7473 22.9955L52.9512 40.8221L57.5542 22.9955C57.7139 22.4634 57.9001 22.1175 58.0864 21.9578C58.2992 21.7982 58.6451 21.6918 59.1241 21.6918H61.5985C62.0242 21.6918 62.2637 21.9046 62.2637 22.357C62.2637 22.49 62.2371 22.623 62.2105 22.7827C62.1839 22.9423 62.1306 23.1552 62.0242 23.4478L55.6119 44.0149C55.4523 44.5471 55.266 44.893 55.0532 45.0526C54.8403 45.2123 54.4944 45.3187 54.0421 45.3187H51.7539C51.2484 45.3187 50.9025 45.2389 50.6896 45.0526C50.4768 44.8664 50.2905 44.5205 50.1841 43.9883L46.06 26.8269L41.9625 43.9617C41.8295 44.4939 41.6699 44.8398 41.457 45.026C41.2441 45.2123 40.8717 45.2921 40.3927 45.2921H38.1045ZM72.2945 46.0105C70.911 46.0105 69.5274 45.8508 68.197 45.5315C66.8667 45.2123 65.829 44.8664 65.1372 44.4673C64.7115 44.2278 64.4189 43.9617 64.3124 43.7223C64.206 43.4828 64.1528 43.2167 64.1528 42.9773V41.6203C64.1528 41.0616 64.3656 40.7955 64.7647 40.7955C64.9244 40.7955 65.084 40.8221 65.2437 40.8753C65.4033 40.9285 65.6428 41.035 65.9088 41.1414C66.8135 41.5405 67.7979 41.8598 68.8356 42.0726C69.8999 42.2855 70.9376 42.3919 72.0018 42.3919C73.6781 42.3919 74.9818 42.0992 75.8865 41.5139C76.7911 40.9285 77.27 40.0771 77.27 38.9862C77.27 38.2413 77.0306 37.6293 76.5517 37.1238C76.0727 36.6182 75.1681 36.1659 73.8643 35.7402L70.0063 34.5429C68.064 33.9309 66.6272 33.0263 65.7492 31.829C64.8712 30.6583 64.4188 29.3546 64.4188 27.971C64.4188 26.8535 64.6583 25.8691 65.1372 25.0176C65.6162 24.1662 66.2547 23.4212 67.0529 22.8359C67.8512 22.2239 68.7558 21.7716 69.8201 21.4523C70.8844 21.133 72.0019 21 73.1726 21C73.7579 21 74.3699 21.0266 74.9552 21.1064C75.5672 21.1862 76.1259 21.2927 76.6847 21.3991C77.2168 21.5321 77.7224 21.6652 78.2013 21.8248C78.6802 21.9845 79.0527 22.1441 79.3188 22.3037C79.6913 22.5166 79.9573 22.7294 80.117 22.9689C80.2766 23.1818 80.3564 23.4744 80.3564 23.8469V25.0975C80.3564 25.6562 80.1436 25.9489 79.7445 25.9489C79.5316 25.9489 79.1857 25.8425 78.7334 25.6296C77.2168 24.9378 75.514 24.5919 73.6249 24.5919C72.1083 24.5919 70.911 24.8314 70.0861 25.3369C69.2613 25.8424 68.8356 26.614 68.8356 27.7049C68.8356 28.4499 69.1017 29.0885 69.6338 29.594C70.166 30.0995 71.1504 30.6051 72.5606 31.0574L76.3388 32.2547C78.2545 32.8667 79.6381 33.7181 80.4629 34.809C81.2877 35.8998 81.6868 37.1504 81.6868 38.5339C81.6868 39.678 81.4473 40.7157 80.995 41.6203C80.5161 42.525 79.8775 43.3232 79.0527 43.9617C78.2279 44.6269 77.2434 45.1058 76.0993 45.4517C74.902 45.8242 73.6515 46.0105 72.2945 46.0105Z" fill="#221F1F"/>
<path fill-rule="evenodd" clip-rule="evenodd" d="M77.3264 58.9414C68.5727 65.4069 55.8545 68.8392 44.919 68.8392C29.5934 68.8392 15.7844 63.1719 5.35441 53.7531C4.52959 53.0081 5.27459 51.997 6.25905 52.5824C17.5404 59.1276 31.4559 63.0921 45.8503 63.0921C55.5618 63.0921 66.2313 61.07 76.0492 56.9193C77.5126 56.2541 78.7632 57.8771 77.3264 58.9414Z" fill="#FF9900"/>
<path fill-rule="evenodd" clip-rule="evenodd" d="M80.972 54.7906C79.8545 53.3538 73.5752 54.0988 70.7283 54.4447C69.8768 54.5511 69.7438 53.8062 70.5154 53.2474C75.5175 49.7353 83.7391 50.7464 84.697 51.9171C85.6548 53.1144 84.4309 61.3359 79.7481 65.2737C79.0297 65.8857 78.3379 65.5664 78.6572 64.7682C79.7215 62.1341 82.0895 56.2008 80.972 54.7906Z" fill="#FF9900"/>
</svg>
