<svg width="300" height="100" viewBox="0 0 300 100" fill="none" xmlns="http://www.w3.org/2000/svg">
<path d="M123.802 40.062C123.802 41.5387 123.961 42.7361 124.241 43.6141C124.56 44.4922 124.959 45.45 125.518 46.4877C125.717 46.807 125.797 47.1263 125.797 47.4057C125.797 47.8048 125.558 48.2039 125.039 48.603L122.524 50.2793C122.165 50.5188 121.806 50.6385 121.487 50.6385C121.088 50.6385 120.688 50.4389 120.289 50.0797C119.731 49.4811 119.252 48.8425 118.853 48.2039C118.453 47.5254 118.054 46.7671 117.615 45.8492C114.502 49.521 110.591 51.3569 105.881 51.3569C102.529 51.3569 99.8549 50.399 97.8993 48.4833C95.9436 46.5676 94.9458 44.0132 94.9458 40.8203C94.9458 37.4279 96.1432 34.674 98.5778 32.5986C101.012 30.5232 104.245 29.4856 108.356 29.4856C109.713 29.4856 111.11 29.6053 112.587 29.8048C114.063 30.0044 115.58 30.3237 117.176 30.6829V27.7694C117.176 24.7361 116.538 22.6208 115.3 21.3836C114.023 20.1463 111.868 19.5477 108.795 19.5477C107.398 19.5477 105.961 19.7073 104.485 20.0665C103.008 20.4257 101.571 20.8647 100.174 21.4235C99.5356 21.7029 99.0567 21.8625 98.7773 21.9423C98.4979 22.0222 98.2984 22.0621 98.1387 22.0621C97.58 22.0621 97.3006 21.663 97.3006 20.8248V18.8692C97.3006 18.2306 97.3804 17.7517 97.58 17.4723C97.7795 17.1929 98.1387 16.9135 98.6975 16.6341C100.094 15.9157 101.771 15.3171 103.726 14.8381C105.682 14.3193 107.757 14.0798 109.952 14.0798C114.702 14.0798 118.174 15.1574 120.409 17.3126C122.604 19.4678 123.722 22.7406 123.722 27.1308V40.062H123.802ZM107.598 46.1285C108.915 46.1285 110.272 45.8891 111.708 45.4101C113.145 44.9312 114.422 44.0532 115.5 42.8558C116.139 42.0975 116.618 41.2594 116.857 40.3015C117.096 39.3436 117.256 38.1862 117.256 36.8292V35.1529C116.099 34.8736 114.861 34.6341 113.584 34.4745C112.307 34.3148 111.07 34.235 109.833 34.235C107.159 34.235 105.203 34.7538 103.886 35.8314C102.569 36.909 101.93 38.4257 101.93 40.4212C101.93 42.2971 102.409 43.694 103.407 44.6518C104.365 45.6496 105.762 46.1285 107.598 46.1285ZM139.646 50.4389C138.928 50.4389 138.449 50.3192 138.13 50.0398C137.81 49.8004 137.531 49.2416 137.291 48.4833L127.912 17.6319C127.673 16.8337 127.553 16.3149 127.553 16.0355C127.553 15.3969 127.872 15.0377 128.511 15.0377H132.422C133.181 15.0377 133.699 15.1574 133.979 15.4368C134.298 15.6763 134.538 16.235 134.777 16.9933L141.482 43.4146L147.708 16.9933C147.908 16.1951 148.147 15.6763 148.467 15.4368C148.786 15.1973 149.345 15.0377 150.063 15.0377H153.256C154.014 15.0377 154.533 15.1574 154.852 15.4368C155.172 15.6763 155.451 16.235 155.611 16.9933L161.917 43.7339L168.821 16.9933C169.061 16.1951 169.34 15.6763 169.619 15.4368C169.939 15.1973 170.458 15.0377 171.176 15.0377H174.888C175.526 15.0377 175.885 15.357 175.885 16.0355C175.885 16.235 175.846 16.4346 175.806 16.6741C175.766 16.9135 175.686 17.2328 175.526 17.6718L165.908 48.5232C165.668 49.3214 165.389 49.8403 165.07 50.0797C164.75 50.3192 164.231 50.4789 163.553 50.4789H160.121C159.362 50.4789 158.843 50.3591 158.524 50.0797C158.205 49.8004 157.926 49.2815 157.766 48.4833L151.58 22.7406L145.433 48.4434C145.234 49.2416 144.994 49.7605 144.675 50.0398C144.356 50.3192 143.797 50.4389 143.079 50.4389H139.646ZM190.932 51.5165C188.857 51.5165 186.781 51.2771 184.786 50.7981C182.79 50.3192 181.234 49.8004 180.196 49.2017C179.557 48.8425 179.118 48.4434 178.959 48.0842C178.799 47.725 178.719 47.3259 178.719 46.9667V44.9312C178.719 44.0931 179.038 43.694 179.637 43.694C179.877 43.694 180.116 43.7339 180.356 43.8137C180.595 43.8935 180.954 44.0532 181.353 44.2128C182.71 44.8115 184.187 45.2904 185.744 45.6097C187.34 45.929 188.896 46.0886 190.493 46.0886C193.007 46.0886 194.963 45.6496 196.32 44.7716C197.677 43.8935 198.395 42.6163 198.395 40.98C198.395 39.8625 198.036 38.9445 197.318 38.1862C196.599 37.4279 195.242 36.7494 193.287 36.1108L187.5 34.3148C184.586 33.3969 182.431 32.0399 181.114 30.2439C179.797 28.4878 179.118 26.5321 179.118 24.4567C179.118 22.7805 179.477 21.3038 180.196 20.0266C180.914 18.7494 181.872 17.6319 183.069 16.7539C184.267 15.8359 185.624 15.1574 187.22 14.6785C188.817 14.1996 190.493 14 192.249 14C193.127 14 194.045 14.0399 194.923 14.1596C195.841 14.2794 196.679 14.439 197.517 14.5987C198.315 14.7982 199.074 14.9978 199.792 15.2372C200.511 15.4767 201.069 15.7162 201.468 15.9557C202.027 16.2749 202.426 16.5942 202.666 16.9534C202.905 17.2727 203.025 17.7117 203.025 18.2705V20.1463C203.025 20.9845 202.706 21.4235 202.107 21.4235C201.788 21.4235 201.269 21.2638 200.59 20.9446C198.315 19.9069 195.761 19.388 192.928 19.388C190.653 19.388 188.857 19.7472 187.619 20.5055C186.382 21.2638 185.744 22.4213 185.744 24.0576C185.744 25.1751 186.143 26.133 186.941 26.8913C187.739 27.6496 189.216 28.408 191.331 29.0864L196.998 30.8825C199.872 31.8004 201.947 33.0776 203.185 34.7139C204.422 36.3503 205.021 38.2261 205.021 40.3015C205.021 42.0177 204.661 43.5742 203.983 44.9312C203.264 46.2882 202.307 47.4855 201.069 48.4434C199.832 49.4412 198.355 50.1596 196.639 50.6784C194.843 51.2372 192.967 51.5165 190.932 51.5165Z" fill="#221F1F"/>
<path fill-rule="evenodd" clip-rule="evenodd" d="M198.491 70.9131C185.36 80.6116 166.283 85.7601 149.879 85.7601C126.891 85.7601 106.177 77.259 90.5316 63.1304C89.2944 62.0129 90.4119 60.4963 91.8886 61.3744C108.811 71.1925 129.684 77.1393 151.276 77.1393C165.844 77.1393 181.848 74.106 196.575 67.8799C198.77 66.8821 200.646 69.3167 198.491 70.9131Z" fill="#FF9900"/>
<path fill-rule="evenodd" clip-rule="evenodd" d="M203.958 64.6865C202.282 62.5313 192.863 63.6488 188.592 64.1677C187.315 64.3273 187.115 63.2098 188.273 62.3717C195.776 57.1034 208.109 58.62 209.545 60.3761C210.982 62.1721 209.146 74.5047 202.122 80.4115C201.044 81.3295 200.007 80.8506 200.486 79.6532C202.082 75.702 205.634 66.8018 203.958 64.6865Z" fill="#FF9900"/>
</svg>
