<svg width="90" height="90" viewBox="0 0 90 90" fill="none" xmlns="http://www.w3.org/2000/svg">
<path d="M85 45C85 22.9086 67.0914 5 45 5C22.9086 5 5 22.9086 5 45C5 64.9649 19.6273 81.5133 38.75 84.5141V56.5625H28.5938V45H38.75V36.1875C38.75 26.1625 44.7219 20.625 53.8586 20.625C58.2352 20.625 62.8125 21.4063 62.8125 21.4063V31.25H57.7687C52.8 31.25 51.25 34.3336 51.25 37.4969V45H62.3438L60.5703 56.5625H51.25V84.5141C70.3727 81.5133 85 64.9656 85 45Z" fill="#1877F2"/>
<path d="M60.5703 56.5625L62.3438 45H51.25V37.4969C51.25 34.3336 52.8 31.25 57.7687 31.25H62.8125V21.4062C62.8125 21.4062 58.2352 20.625 53.8586 20.625C44.7219 20.625 38.75 26.1625 38.75 36.1875V45H28.5938V56.5625H38.75V84.5141C40.7867 84.8336 42.8734 85 45 85C47.1266 85 49.2133 84.8336 51.25 84.5141V56.5625H60.5703Z" fill="white"/>
</svg>
