<?xml version="1.0" encoding="UTF-8"?>
<svg version="1.1" xmlns="http://www.w3.org/2000/svg" width="616" height="744">
<path d="M0 0 C30.42174079 -1.40588117 60.83734147 -2.47808079 91.28403566 -3.1149851 C94.91572829 -3.1912357 98.54735732 -3.2701934 102.17895508 -3.35083008 C103.26297645 -3.37483148 103.26297645 -3.37483148 104.36889724 -3.39931776 C114.4986993 -3.62920655 124.61385809 -4.00450146 134.73411812 -4.49779938 C152.15754273 -5.34686983 169.56619482 -5.91836514 187.01171875 -5.95703125 C187.68687678 -5.9590529 188.36203481 -5.96107456 189.05765218 -5.96315747 C223.60039386 -6.02296017 251.74128848 -3.32058276 277.26216125 21.84992981 C288.02971711 32.97417614 297.51845533 45.1316348 305.93963337 58.10858631 C308.05689865 61.07984867 310.37511131 63.47502277 313 66 C314.66666667 68 316.33333333 70 318 72 C320.40088651 74.52093083 322.78166976 76.82533581 325.5 79 C329.93881656 82.55105325 333.4635455 86.57943187 337 91 C339.55393489 93.68835251 342.15013508 96.12511257 345 98.5 C349.55891822 102.29909852 353.30368964 106.37961204 357 111 C359.51186892 113.64407254 362.03183849 116.02560922 364.875 118.3125 C367.12483308 120.15526536 368.98054665 122.07864541 370.84326172 124.30981445 C376.43767866 130.76951804 382.58122774 136.70415031 388.6328125 142.73046875 C389.95626439 144.05205138 391.27949257 145.37385806 392.60250854 146.69587708 C396.06710077 150.15667422 399.53468368 153.61445927 403.00292969 157.07159424 C406.52850603 160.58692889 410.05124713 164.10510219 413.57421875 167.62304688 C419.26356835 173.30363768 424.9546086 178.98252782 430.64797974 184.65908813 C433.00489973 187.00921769 435.36035004 189.3607372 437.71261597 191.7155304 C439.31940189 193.32026906 440.93703702 194.91418246 442.5625 196.5 C445 199 445 199 446.9375 201.5 C449.34914516 204.42320625 452.0672892 206.60595036 455 209 C456.68711423 210.6459651 458.3545622 212.31237149 460 214 C460.845625 214.825 461.69125 215.65 462.5625 216.5 C465 219 465 219 466.9375 221.5 C469.34914516 224.42320625 472.0672892 226.60595036 475 229 C476.68711423 230.6459651 478.3545622 232.31237149 480 234 C480.845625 234.825 481.69125 235.65 482.5625 236.5 C484.89448943 238.89178403 486.91515471 241.39394339 489 244 C490.65434667 245.67889626 492.32327065 247.34345714 494 249 C494.97272252 249.96750188 495.94506349 250.93538749 496.91706848 251.90361023 C498.00042121 252.98094293 499.08381262 254.05823672 500.16723633 255.13549805 C506.20608679 261.14178112 512.2399323 267.15306583 518.27089405 273.16726971 C521.91552456 276.80141344 525.56202274 280.43364352 529.21264648 284.06176758 C532.74997862 287.57744402 536.28246889 291.09791778 539.81159019 294.62183571 C541.15792293 295.96446483 542.50601856 297.30532852 543.85587502 298.6444149 C545.73513521 300.50925358 547.60814099 302.38015892 549.47973633 304.25268555 C550.04227615 304.80803482 550.60481598 305.36338409 551.18440247 305.93556213 C555 309.77189001 555 309.77189001 555 312 C555.57975586 312.25523437 556.15951172 312.51046875 556.75683594 312.7734375 C559.23015312 314.12584777 560.89602109 315.63732524 562.890625 317.625 C563.59960938 318.33140625 564.30859375 319.0378125 565.0390625 319.765625 C565.76867187 320.50296875 566.49828125 321.2403125 567.25 322 C567.99507812 322.73734375 568.74015625 323.4746875 569.5078125 324.234375 C570.56355469 325.29398437 570.56355469 325.29398437 571.640625 326.375 C572.28547852 327.02210938 572.93033203 327.66921875 573.59472656 328.3359375 C575 330 575 330 575 332 C575.57975586 332.25523437 576.15951172 332.51046875 576.75683594 332.7734375 C579.23015312 334.12584777 580.89602109 335.63732524 582.890625 337.625 C583.59960938 338.33140625 584.30859375 339.0378125 585.0390625 339.765625 C585.76867187 340.50296875 586.49828125 341.2403125 587.25 342 C587.99507812 342.73734375 588.74015625 343.4746875 589.5078125 344.234375 C590.56355469 345.29398437 590.56355469 345.29398437 591.640625 346.375 C592.28547852 347.02210938 592.93033203 347.66921875 593.59472656 348.3359375 C595 350 595 350 595 352 C595.57903076 352.25668457 596.15806152 352.51336914 596.75463867 352.77783203 C600.89606574 355.03204361 603.98773844 358.5765096 607.3125 361.875 C608.06595703 362.59558594 608.81941406 363.31617188 609.59570312 364.05859375 C610.30275391 364.75855469 611.00980469 365.45851563 611.73828125 366.1796875 C612.38837158 366.81632324 613.03846191 367.45295898 613.70825195 368.10888672 C615 370 615 370 614.92137146 371.75726318 C613.54817778 375.09979348 611.09140481 377.29143574 608.54980469 379.77490234 C607.98222946 380.34130936 607.41465424 380.90771637 606.82987976 381.49128723 C604.9507493 383.36322724 603.06132769 385.22442177 601.171875 387.0859375 C599.86176201 388.38791144 598.55238494 389.69062629 597.24371338 390.99404907 C593.79307842 394.42755333 590.33398474 397.85240261 586.87261963 401.27508545 C581.34457061 406.74400244 575.82900617 412.2255012 570.3141861 417.70775223 C568.39097024 419.61707057 566.46394945 421.5224807 564.53631592 423.42733765 C563.3467144 424.60690654 562.15719592 425.78655918 560.96777344 426.96630859 C560.43562729 427.49014633 559.90348114 428.01398407 559.35520935 428.55369568 C556.83132495 431.06269005 554.47868062 433.59862105 552.25201416 436.37710571 C551.50884949 437.24266083 550.76568481 438.10821594 550 439 C549.34 439 548.68 439 548 439 C547.7628125 439.56203125 547.525625 440.1240625 547.28125 440.703125 C545.71052303 443.51894042 543.78528536 445.47955416 541.5 447.75 C540.7059375 448.54921875 539.911875 449.3484375 539.09375 450.171875 C537 452 537 452 535 452 C534.731875 452.598125 534.46375 453.19625 534.1875 453.8125 C533.00082594 455.99847854 531.90400887 457.41332594 530 459 C529.34 459 528.68 459 528 459 C527.7525 459.61875 527.505 460.2375 527.25 460.875 C525.76259631 463.40358627 524.56321991 463.71839004 522 465 C520.90833725 466.93330603 520.90833725 466.93330603 520 469 C518.5 470.75 518.5 470.75 517 472 C516.34 472 515.68 472 515 472 C514.731875 472.598125 514.46375 473.19625 514.1875 473.8125 C513.00082594 475.99847854 511.90400887 477.41332594 510 479 C509.34 479 508.68 479 508 479 C507.7525 479.61875 507.505 480.2375 507.25 480.875 C505.76259631 483.40358627 504.56321991 483.71839004 502 485 C500.90833725 486.93330603 500.90833725 486.93330603 500 489 C498.5 490.75 498.5 490.75 497 492 C496.34 492 495.68 492 495 492 C494.69181839 492.79664818 494.69181839 492.79664818 494.37741089 493.60939026 C492.42723263 496.99408481 489.72289962 499.5296428 486.96142578 502.24975586 C486.34333038 502.86653702 485.72523499 503.48331818 485.08840942 504.11878967 C483.04526803 506.15544339 480.99524688 508.18502948 478.9453125 510.21484375 C477.52234958 511.63153432 476.09990188 513.04874257 474.677948 514.46644592 C470.93213691 518.19895216 467.18080485 521.92585581 463.42785645 525.65118408 C457.4267987 531.60913855 451.4323907 537.57376395 445.44128036 543.54171944 C443.34980361 545.62299647 441.25493268 547.70081159 439.15969849 549.77830505 C437.87213657 551.05903577 436.58468561 552.33987807 435.29736328 553.62084961 C434.71643921 554.19503632 434.13551514 554.76922302 433.5369873 555.36080933 C430.46102964 558.42815126 427.67440642 561.56711575 425 565 C423.3545622 566.68762851 421.68711423 568.3540349 420 570 C419.195625 570.825 418.39125 571.65 417.5625 572.5 C415 575 415 575 411.9375 577.5 C409.18754889 579.84038392 407.2017103 582.15908348 405 585 C403.3545622 586.68762851 401.68711423 588.3540349 400 590 C399.195625 590.825 398.39125 591.65 397.5625 592.5 C395 595 395 595 391.9375 597.5 C389.18754889 599.84038392 387.2017103 602.15908348 385 605 C383.3545622 606.68762851 381.68711423 608.3540349 380 610 C379.175 610.845625 378.35 611.69125 377.5 612.5625 C375 615 375 615 372.625 616.8125 C370.46610804 618.61157663 368.89287304 620.23249417 367.10595703 622.3605957 C361.92795671 628.33427361 356.27912926 633.84462232 350.6796875 639.41796875 C349.49075679 640.60502956 348.30205024 641.79231491 347.11355591 642.97981262 C344.00406757 646.08550974 340.89158998 649.18819367 337.77844238 652.29022217 C334.6148026 655.44361608 331.45400102 658.59985202 328.29296875 661.75585938 C322.7322979 667.3069986 317.16916974 672.85566451 311.60421753 678.4025116 C310.74482574 679.25968277 309.88543396 680.11685394 309 681 C308.10459503 681.88476517 307.20919006 682.76953033 306.28665161 683.68110657 C303.96441609 685.95609828 303.96441609 685.95609828 302 688.5 C298.16872157 693.28909804 293.69533104 697.08722414 289 701 C286.4590396 703.41996229 284.15908881 705.79616746 282 708.5625 C279.88121393 711.14477053 277.62797078 712.94890086 275 715 C272.48020356 717.39687954 270.17275467 719.78405667 268 722.5 C264.16872157 727.28909804 259.69533104 731.08722414 255 735 C251.51242378 738.21008365 251.51242378 738.21008365 248.96408367 742.12228012 C245.65073977 745.28993118 241.66415663 744.53487491 237.26216125 744.48101807 C236.25096055 744.48443577 235.23975984 744.48785347 234.19791669 744.49137473 C230.79352559 744.49798812 227.38991472 744.47591988 223.9855957 744.45410156 C221.55168679 744.45297384 219.11777652 744.45360548 216.68386841 744.45587158 C211.43564049 744.45678384 206.18759055 744.44540405 200.93941689 744.42292023 C193.35142828 744.39043349 185.76353589 744.37999665 178.17548528 744.37496826 C165.8649012 744.36621036 153.55442304 744.33958142 141.24389648 744.30175781 C129.28426647 744.26505049 117.3246652 744.23673249 105.36499023 744.21972656 C104.25949063 744.21815022 104.25949063 744.21815022 103.1316577 744.21654204 C99.43440418 744.21132194 95.73715046 744.2062671 92.03989661 744.20129442 C61.35985523 744.15981698 30.6799423 744.08905814 0 744 C1.69145324 740.4021563 3.67183879 738.09131039 6.50976562 735.27905273 C7.44413452 734.34806259 8.37850342 733.41707245 9.34118652 732.45787048 C10.36284397 731.44974745 11.38453255 730.44165597 12.40625 729.43359375 C13.4528603 728.3932572 14.49895489 727.35240159 15.54455566 726.31105042 C18.29487152 723.57402104 21.05070091 720.84261705 23.8081665 718.11279297 C28.22285694 713.74126358 32.63082825 709.36298491 37.03556824 704.98143196 C38.57427889 703.4529356 40.11636196 701.92790305 41.65881348 700.40318298 C43.06036682 699.01142601 43.06036682 699.01142601 44.49023438 697.59155273 C45.31471069 696.77532944 46.13918701 695.95910614 46.98864746 695.1181488 C49.14374658 692.96930458 49.14374658 692.96930458 51 690 C51.66 690 52.32 690 53 690 C53.3403125 689.1646875 53.3403125 689.1646875 53.6875 688.3125 C55.3703574 685.34746553 57.53621374 683.34646311 60 681 C60.721875 680.236875 61.44375 679.47375 62.1875 678.6875 C64 677 64 677 66 677 C66.4021875 676.1028125 66.4021875 676.1028125 66.8125 675.1875 C67.99917406 673.00152146 69.09599113 671.58667406 71 670 C71.66 670 72.32 670 73 670 C73.226875 669.443125 73.45375 668.88625 73.6875 668.3125 C75.3703574 665.34746553 77.53621374 663.34646311 80 661 C80.721875 660.236875 81.44375 659.47375 82.1875 658.6875 C84 657 84 657 86 657 C86.4021875 656.1028125 86.4021875 656.1028125 86.8125 655.1875 C87.99917406 653.00152146 89.09599113 651.58667406 91 650 C91.66 650 92.32 650 93 650 C93.226875 649.443125 93.45375 648.88625 93.6875 648.3125 C95.37027737 645.34760654 97.56074257 643.3828953 100 641 C100.84099747 640.16122314 101.68199493 639.32244629 102.54847717 638.45825195 C103.44908371 637.56066162 104.34969025 636.66307129 105.27758789 635.73828125 C110.36831375 630.66386117 115.45652265 625.58692529 120.54328251 620.50852966 C123.61290345 617.44413846 126.68345858 614.38069523 129.75610352 611.31933594 C132.74017901 608.34614548 135.72178685 605.37050066 138.70171928 602.39315796 C139.83349832 601.26321992 140.96615398 600.13415919 142.09971809 599.00601196 C143.68610009 597.42691739 145.26929603 595.84469178 146.85180664 594.26171875 C147.75161758 593.36412842 148.65142853 592.46653809 149.57850647 591.54174805 C151.8797663 589.12620466 153.94101551 586.62217645 156 584 C159.14605182 580.69261219 162.44161605 577.84670716 166 575 C168.68835251 572.44606511 171.12511257 569.84986492 173.5 567 C177.29909852 562.44108178 181.37961204 558.69631036 186 555 C188.68835251 552.44606511 191.12511257 549.84986492 193.5 547 C195.87338273 544.15194072 198.36459325 541.60452544 201 539 C201.82624878 538.17375122 202.65249756 537.34750244 203.50378418 536.49621582 C252 488 252 488 254.69812012 485.33703613 C257.04379367 483.04500664 257.04379367 483.04500664 259 480.4375 C261.11878607 477.85522947 263.37202922 476.05109914 266 474 C268.51979644 471.60312046 270.82724533 469.21594333 273 466.5 C276.83127843 461.71090196 281.30466896 457.91277586 286 454 C287.68711423 452.3540349 289.3545622 450.68762851 291 449 C291.76074326 448.2481543 292.52148651 447.49630859 293.30528259 446.72167969 C296.13227621 443.86640029 298.84777983 440.92254758 301.55297852 437.953125 C307.58522393 431.37895804 313.82823559 425.04202379 320.15234375 418.75 C321.26686955 417.63734819 322.38116818 416.52446879 323.49525452 415.41137695 C326.38600324 412.52438824 329.27974084 409.64041483 332.17419434 406.75714111 C335.12383707 403.81781038 338.07058305 400.87557862 341.01757812 397.93359375 C346.19055688 392.77010134 351.3659974 387.60908826 356.5433197 382.44995117 C357.3540242 381.64146729 358.1647287 380.8329834 359 380 C359.90226822 379.11868408 360.80453644 378.23736816 361.73414612 377.3293457 C363.76139343 375.24529259 364.91502663 373.66311646 366 371 C365.07058594 370.0821875 364.14117187 369.164375 363.18359375 368.21875 C357.38984997 362.47432467 351.65263728 356.77155693 346.3828125 350.53515625 C344.47125347 348.41300174 342.24336076 346.75830979 340 345 C338.64613064 343.34997172 337.31321858 341.6825613 336 340 C334.3545622 338.31237149 332.68711423 336.6459651 331 335 C330.195625 334.175 329.39125 333.35 328.5625 332.5 C325.99059292 329.91719933 325.99059292 329.91719933 322.9375 327.5 C320.18754889 325.15961608 318.2017103 322.84091652 316 320 C314.3545622 318.31237149 312.68711423 316.6459651 311 315 C310.175 314.154375 309.35 313.30875 308.5 312.4375 C306.10609032 310.00543753 306.10609032 310.00543753 303.625 308.1875 C301.42700834 306.35584028 299.79537192 304.6625021 297.96655273 302.49560547 C293.52755667 297.37331487 288.73116148 292.64286302 283.91015625 287.8828125 C282.95572108 286.93533882 282.00166189 285.98748626 281.04795837 285.03927612 C277.03294835 281.0485082 273.01202764 277.06373221 268.98706055 273.08300781 C266.51092088 270.63357292 264.03961278 268.17934973 261.57125664 265.7220726 C260.17671953 264.33676614 258.77662927 262.95705712 257.3764801 261.5774231 C256.11903236 260.32504349 256.11903236 260.32504349 254.83618164 259.04736328 C254.09340469 258.31204376 253.35062775 257.57672424 252.58534241 256.81912231 C251 255 251 255 251 253 C250.443125 252.773125 249.88625 252.54625 249.3125 252.3125 C245.43186736 250.10997877 242.72466975 246.92848311 240 243.4375 C237.88121393 240.85522947 235.62797078 239.05109914 233 237 C229.69261219 233.85394818 226.84670716 230.55838395 224 227 C221.44606511 224.31164749 218.84986492 221.87488743 216 219.5 C211.44108178 215.70090148 207.69631036 211.62038796 204 207 C202.34463597 205.32210683 200.67632563 203.6569514 199 202 C147 150 147 150 144.32739258 147.32348633 C142.72794943 145.72672765 141.11820097 144.14024595 139.5 142.5625 C137 140 137 140 134.5625 137 C132.62108367 134.72712235 130.97840216 133.07841957 128.6875 131.25 C127.3571875 130.13625 127.3571875 130.13625 126 129 C126 128.34 126 127.68 126 127 C125.443125 126.773125 124.88625 126.54625 124.3125 126.3125 C120.25342254 124.00869928 117.48062113 120.5915337 114.5625 117 C112.62108367 114.72712235 110.97840216 113.07841957 108.6875 111.25 C107.800625 110.5075 106.91375 109.765 106 109 C106 108.34 106 107.68 106 107 C105.44282791 106.78052704 104.88565582 106.56105408 104.31159973 106.33493042 C101.24470563 104.56382352 99.35624056 102.29667447 97.0144043 99.64111328 C91.66810522 93.66902867 86.0897896 87.9826906 80.39197731 82.34737778 C78.72054659 80.69372382 77.05301574 79.03622026 75.38639832 77.37771606 C70.65803686 72.67350906 65.92361683 67.97543117 61.18530273 63.28125 C58.26365637 60.38629422 55.34682805 57.4865569 52.4329586 54.58377457 C51.32679766 53.48382482 50.21874246 52.38577665 49.10877419 51.28966904 C47.57035175 49.77034215 46.03807737 48.24506507 44.50708008 46.71826172 C43.19783318 45.42020096 43.19783318 45.42020096 41.86213684 44.09591675 C40 42 40 42 40 40 C39.13036621 39.61714844 39.13036621 39.61714844 38.24316406 39.2265625 C35.76984688 37.87415223 34.10397891 36.36267476 32.109375 34.375 C31.40039062 33.66859375 30.69140625 32.9621875 29.9609375 32.234375 C29.23132813 31.49703125 28.50171875 30.7596875 27.75 30 C26.63238281 28.89398437 26.63238281 28.89398437 25.4921875 27.765625 C24.78835937 27.05921875 24.08453125 26.3528125 23.359375 25.625 C22.71452148 24.97789063 22.06966797 24.33078125 21.40527344 23.6640625 C20 22 20 22 20 20 C19.42024414 19.74476562 18.84048828 19.48953125 18.24316406 19.2265625 C15.76984688 17.87415223 14.10397891 16.36267476 12.109375 14.375 C11.04589844 13.31539062 11.04589844 13.31539062 9.9609375 12.234375 C9.23132812 11.49703125 8.50171875 10.7596875 7.75 10 C7.00492187 9.26265625 6.25984375 8.5253125 5.4921875 7.765625 C4.78835937 7.05921875 4.08453125 6.3528125 3.359375 5.625 C2.71452148 4.97789062 2.06966797 4.33078125 1.40527344 3.6640625 C-0 2 -0 2 0 0 Z " fill="#F38035" transform="translate(0,0)"/>
<path d="M0 0 C1.01528426 0.00066585 2.03056852 0.00133171 3.07661897 0.00201774 C6.49490712 0.0091675 9.91229761 0.04508297 13.33039856 0.08074951 C15.77415261 0.09173449 18.21791515 0.10095484 20.66168213 0.10853577 C25.93126483 0.12886905 31.20055229 0.16153068 36.46997643 0.2053299 C44.0886674 0.26863491 51.70735115 0.30982426 59.3262153 0.34558913 C71.68677707 0.40421457 84.04716042 0.48076451 96.407547 0.56854248 C108.41564174 0.65378034 120.4237416 0.73060384 132.43196106 0.79608154 C133.17194779 0.80011943 133.91193453 0.80415732 134.6743451 0.80831757 C138.38658213 0.82852215 142.09882003 0.84856098 145.8110584 0.8685174 C176.61561886 1.03433246 207.41992902 1.22951642 238.22419739 1.4430542 C237.28232372 2.55123958 236.33909802 3.6582759 235.39531803 4.76483822 C234.8702073 5.38144438 234.34509657 5.99805054 233.80407339 6.63334173 C231.5330388 9.23476083 229.11358311 11.66509732 226.6653595 14.09954834 C226.14582199 14.61762558 225.62628448 15.13570282 225.09100342 15.66947937 C223.97581313 16.7808985 222.8594705 17.89116239 221.74206352 19.00035286 C219.96932017 20.76019696 218.19983847 22.52326463 216.43112183 24.28715515 C212.67746258 28.02945428 208.91987677 31.76779513 205.16169739 35.5055542 C200.79954383 39.84402992 196.4390574 44.18415454 192.08278084 48.52853203 C190.34721825 50.25765641 188.60865096 51.98371934 186.86993408 53.70967102 C185.7976872 54.77828262 184.72558202 55.84703643 183.65364075 56.91595459 C182.25848488 58.30325523 182.25848488 58.30325523 180.83514404 59.71858215 C178.93278035 61.70366166 177.22117357 63.65280552 175.50985718 65.78849792 C174.75558945 66.6645015 174.00132172 67.54050507 173.22419739 68.4430542 C172.56419739 68.4430542 171.90419739 68.4430542 171.22419739 68.4430542 C170.86841614 69.28610107 170.86841614 69.28610107 170.50544739 70.1461792 C168.93472042 72.96199462 167.00948274 74.92260836 164.72419739 77.1930542 C163.93013489 77.99227295 163.13607239 78.7914917 162.31794739 79.6149292 C160.22419739 81.4430542 160.22419739 81.4430542 158.22419739 81.4430542 C157.95607239 82.0411792 157.68794739 82.6393042 157.41169739 83.2555542 C156.22502333 85.44153274 155.12820626 86.85638014 153.22419739 88.4430542 C152.56419739 88.4430542 151.90419739 88.4430542 151.22419739 88.4430542 C150.97669739 89.0618042 150.72919739 89.6805542 150.47419739 90.3180542 C148.9867937 92.84664047 147.7874173 93.16144424 145.22419739 94.4430542 C144.13253464 96.37636022 144.13253464 96.37636022 143.22419739 98.4430542 C141.72419739 100.1930542 141.72419739 100.1930542 140.22419739 101.4430542 C139.56419739 101.4430542 138.90419739 101.4430542 138.22419739 101.4430542 C137.95607239 102.0411792 137.68794739 102.6393042 137.41169739 103.2555542 C136.22502333 105.44153274 135.12820626 106.85638014 133.22419739 108.4430542 C132.56419739 108.4430542 131.90419739 108.4430542 131.22419739 108.4430542 C130.97669739 109.0618042 130.72919739 109.6805542 130.47419739 110.3180542 C128.9867937 112.84664047 127.7874173 113.16144424 125.22419739 114.4430542 C124.13253464 116.37636022 124.13253464 116.37636022 123.22419739 118.4430542 C121.72419739 120.1930542 121.72419739 120.1930542 120.22419739 121.4430542 C119.56419739 121.4430542 118.90419739 121.4430542 118.22419739 121.4430542 C117.91601578 122.23970238 117.91601578 122.23970238 117.60160828 123.05244446 C115.65143002 126.43713901 112.94709701 128.972697 110.18562317 131.69281006 C109.56752777 132.30959122 108.94943237 132.92637238 108.31260681 133.56184387 C106.26946542 135.59849759 104.21944427 137.62808368 102.16950989 139.65789795 C100.74654696 141.07458852 99.32409927 142.49179677 97.90214539 143.90950012 C94.1563343 147.64200636 90.40500224 151.36891001 86.65205383 155.09423828 C80.65099609 161.05219275 74.65658809 167.01681815 68.66547775 172.98477364 C66.57400099 175.06605067 64.47913007 177.14386579 62.38389587 179.22135925 C61.09633395 180.50208997 59.808883 181.78293227 58.52156067 183.06390381 C57.9406366 183.63809052 57.35971252 184.21227722 56.76118469 184.80386353 C53.68522703 187.87120546 50.89860381 191.01016995 48.22419739 194.4430542 C46.57875959 196.13068271 44.91131162 197.79708909 43.22419739 199.4430542 C42.41982239 200.2680542 41.61544739 201.0930542 40.78669739 201.9430542 C38.22419739 204.4430542 38.22419739 204.4430542 35.16169739 206.9430542 C32.41174628 209.28343812 30.42590769 211.60213768 28.22419739 214.4430542 C26.57875959 216.13068271 24.91131162 217.79708909 23.22419739 219.4430542 C22.41982239 220.2680542 21.61544739 221.0930542 20.78669739 221.9430542 C18.22419739 224.4430542 18.22419739 224.4430542 15.16169739 226.9430542 C12.41174628 229.28343812 10.42590769 231.60213768 8.22419739 234.4430542 C6.57875959 236.13068271 4.91131162 237.79708909 3.22419739 239.4430542 C2.39919739 240.2886792 1.57419739 241.1343042 0.72419739 242.0055542 C-1.77580261 244.4430542 -1.77580261 244.4430542 -4.15080261 246.2555542 C-6.30969457 248.05463083 -7.88292957 249.67554837 -9.66984558 251.8036499 C-14.8478459 257.77732781 -20.49667335 263.28767652 -26.09611511 268.86102295 C-27.28504582 270.04808376 -28.47375237 271.23536911 -29.6622467 272.42286682 C-32.77173504 275.52856394 -35.88421264 278.63124787 -38.99736023 281.73327637 C-42.16100001 284.88667028 -45.32180159 288.04290622 -48.48283386 291.19891357 C-54.04350472 296.7500528 -59.60663287 302.29871871 -65.17158508 307.8455658 C-66.03097687 308.70273697 -66.89036865 309.55990814 -67.77580261 310.4430542 C-68.67120758 311.32781937 -69.56661255 312.21258453 -70.489151 313.12416077 C-72.81138653 315.39915248 -72.81138653 315.39915248 -74.77580261 317.9430542 C-78.60708104 322.73215224 -83.08047158 326.53027834 -87.77580261 330.4430542 C-90.31676301 332.86301649 -92.6167138 335.23922166 -94.77580261 338.0055542 C-96.89458869 340.58782473 -99.14783183 342.39195506 -101.77580261 344.4430542 C-104.29559905 346.83993374 -106.60304794 349.22711086 -108.77580261 351.9430542 C-112.60708104 356.73215224 -117.08047158 360.53027834 -121.77580261 364.4430542 C-125.26337883 367.65313785 -125.26337883 367.65313785 -127.81171894 371.56533432 C-131.12506285 374.73298538 -135.11164599 373.97792911 -139.51364136 373.92407227 C-141.03044242 373.92919881 -141.03044242 373.92919881 -142.57788593 373.93442893 C-145.98227702 373.94104232 -149.38588789 373.91897408 -152.79020691 373.89715576 C-155.22411582 373.89602804 -157.65802609 373.89665968 -160.0919342 373.89892578 C-165.34016212 373.89983804 -170.58821206 373.88845825 -175.83638573 373.86597443 C-183.42437433 373.83348768 -191.01226672 373.82305084 -198.60031734 373.81802246 C-210.91090142 373.80926456 -223.22137957 373.78263562 -235.53190613 373.74481201 C-247.49153615 373.70810469 -259.45113741 373.67978669 -271.41081238 373.66278076 C-272.14781212 373.66172987 -272.88481185 373.66067897 -273.64414492 373.65959623 C-277.34139843 373.65437614 -281.03865215 373.6493213 -284.735906 373.64434862 C-315.41594738 373.60287118 -346.09586031 373.53211233 -376.77580261 373.4430542 C-375.08434937 369.8452105 -373.10396383 367.53436459 -370.26603699 364.72210693 C-369.33166809 363.79111679 -368.39729919 362.86012665 -367.43461609 361.90092468 C-366.41295864 360.89280165 -365.39127006 359.88471017 -364.36955261 358.87664795 C-363.32294231 357.8363114 -362.27684772 356.79545579 -361.23124695 355.75410461 C-358.48093109 353.01707524 -355.7251017 350.28567125 -352.96763611 347.55584717 C-348.55294567 343.18431778 -344.14497437 338.80603911 -339.74023438 334.42448616 C-338.20152372 332.8959898 -336.65944065 331.37095725 -335.11698914 329.84623718 C-333.71543579 328.45448021 -333.71543579 328.45448021 -332.28556824 327.03460693 C-331.46109192 326.21838364 -330.6366156 325.40216034 -329.78715515 324.561203 C-327.63205603 322.41235878 -327.63205603 322.41235878 -325.77580261 319.4430542 C-325.11580261 319.4430542 -324.45580261 319.4430542 -323.77580261 319.4430542 C-323.43549011 318.6077417 -323.43549011 318.6077417 -323.08830261 317.7555542 C-321.40544521 314.79051973 -319.23958888 312.78951731 -316.77580261 310.4430542 C-316.05392761 309.6799292 -315.33205261 308.9168042 -314.58830261 308.1305542 C-312.77580261 306.4430542 -312.77580261 306.4430542 -310.77580261 306.4430542 C-310.50767761 305.8449292 -310.23955261 305.2468042 -309.96330261 304.6305542 C-308.77662855 302.44457566 -307.67981149 301.02972826 -305.77580261 299.4430542 C-305.11580261 299.4430542 -304.45580261 299.4430542 -303.77580261 299.4430542 C-303.54892761 298.8861792 -303.32205261 298.3293042 -303.08830261 297.7555542 C-301.40544521 294.79051973 -299.23958888 292.78951731 -296.77580261 290.4430542 C-296.05392761 289.6799292 -295.33205261 288.9168042 -294.58830261 288.1305542 C-292.77580261 286.4430542 -292.77580261 286.4430542 -290.77580261 286.4430542 C-290.50767761 285.8449292 -290.23955261 285.2468042 -289.96330261 284.6305542 C-288.77662855 282.44457566 -287.67981149 281.02972826 -285.77580261 279.4430542 C-285.11580261 279.4430542 -284.45580261 279.4430542 -283.77580261 279.4430542 C-283.54892761 278.8861792 -283.32205261 278.3293042 -283.08830261 277.7555542 C-281.40552524 274.79066074 -279.21506005 272.8259495 -276.77580261 270.4430542 C-275.93480515 269.60427734 -275.09380768 268.76550049 -274.22732544 267.90130615 C-272.87641563 266.55492065 -272.87641563 266.55492065 -271.49821472 265.18133545 C-266.40748886 260.10691537 -261.31927996 255.02997949 -256.2325201 249.95158386 C-253.16289916 246.88719266 -250.09234403 243.82374943 -247.0196991 240.76239014 C-244.0356236 237.78919968 -241.05401576 234.81355486 -238.07408333 231.83621216 C-236.94230429 230.70627412 -235.80964864 229.57721339 -234.67608452 228.44906616 C-233.08970252 226.86997159 -231.50650658 225.28774598 -229.92399597 223.70477295 C-229.02418503 222.80718262 -228.12437408 221.90959229 -227.19729614 220.98480225 C-224.89603631 218.56925886 -222.83478711 216.06523065 -220.77580261 213.4430542 C-217.62975079 210.13566639 -214.33418657 207.28976136 -210.77580261 204.4430542 C-208.0874501 201.88911931 -205.65069004 199.29291911 -203.27580261 196.4430542 C-199.47670409 191.88413598 -195.39619057 188.13936456 -190.77580261 184.4430542 C-188.0874501 181.88911931 -185.65069004 179.29291911 -183.27580261 176.4430542 C-180.90241988 173.59499492 -178.41120936 171.04757963 -175.77580261 168.4430542 C-174.94955383 167.61680542 -174.12330505 166.79055664 -173.27201843 165.93927002 C-124.77580261 117.4430542 -124.77580261 117.4430542 -122.0776825 114.78009033 C-119.73200894 112.48806084 -119.73200894 112.48806084 -117.77580261 109.8805542 C-115.65701654 107.29828367 -113.40377339 105.49415334 -110.77580261 103.4430542 C-108.25600618 101.04617466 -105.94855728 98.65899753 -103.77580261 95.9430542 C-99.94452418 91.15395616 -95.47113365 87.35583006 -90.77580261 83.4430542 C-89.08868838 81.79708909 -87.42124041 80.13068271 -85.77580261 78.4430542 C-84.63468773 77.31528564 -84.63468773 77.31528564 -83.47052002 76.16473389 C-80.64352641 73.30945449 -77.92802278 70.36560178 -75.2228241 67.3961792 C-69.19057869 60.82201224 -62.94756703 54.48507799 -56.62345886 48.1930542 C-55.50893306 47.08040239 -54.39463443 45.96752299 -53.2805481 44.85443115 C-50.38979937 41.96744243 -47.49606177 39.08346903 -44.60160828 36.20019531 C-41.65196554 33.26086458 -38.70521956 30.31863282 -35.75822449 27.37664795 C-30.58524573 22.21315554 -25.40980522 17.05214246 -20.23248291 11.89300537 C-19.42177841 11.08452148 -18.61107391 10.2760376 -17.77580261 9.4430542 C-16.90833908 8.59654297 -16.04087555 7.75003174 -15.14712524 6.87786865 C-12.74940822 4.66980996 -12.74940822 4.66980996 -11.73858261 2.31856918 C-8.41848774 -0.85391458 -4.40704252 -0.07163192 0 0 Z " fill="#0DB2C8" transform="translate(376.7758026123047,370.55694580078125)"/>
<path d="M0 0 C0.66 0 1.32 0 2 0 C0.71977125 2.80969467 -0.60714129 4.8539238 -2.79736328 7.02441406 C-3.35779327 7.58469299 -3.91822327 8.14497192 -4.49563599 8.722229 C-5.09777924 9.31404968 -5.69992249 9.90587036 -6.3203125 10.515625 C-6.93897186 11.13145447 -7.55763123 11.74728394 -8.19503784 12.3817749 C-10.16703814 14.34260336 -12.14588737 16.29635301 -14.125 18.25 C-15.46530164 19.58026799 -16.80515083 20.910992 -18.14453125 22.2421875 C-21.42446589 25.5001015 -24.71055942 28.75168533 -28 32 C-28.66 31.67 -29.32 31.34 -30 31 C-29.16227051 30.16750732 -28.32454102 29.33501465 -27.46142578 28.47729492 C-24.3540713 25.38804027 -21.25002724 22.29547754 -18.14697266 19.2019043 C-16.80347319 17.86343362 -15.45907756 16.52586184 -14.11376953 15.18920898 C-12.18025201 13.26782054 -10.24997998 11.34322285 -8.3203125 9.41796875 C-7.41709763 8.5224958 -7.41709763 8.5224958 -6.49563599 7.6089325 C-5.93520599 7.04857803 -5.374776 6.48822357 -4.79736328 5.91088867 C-4.30438751 5.42013351 -3.81141174 4.92937836 -3.30349731 4.42375183 C-1.7726713 2.82446478 -1.7726713 2.82446478 0 0 Z " fill="#329FAF" transform="translate(51,690)"/>
<path d="M0 0 C0.66 0 1.32 0 2 0 C0.38989473 4.07376031 -2.53822271 6.76507069 -5.625 9.75 C-6.140625 10.25660156 -6.65625 10.76320313 -7.1875 11.28515625 C-8.45383339 12.52803902 -9.7263144 13.76465276 -11 15 C-11.66 14.67 -12.32 14.34 -13 14 C-12.22914062 13.24074219 -11.45828125 12.48148438 -10.6640625 11.69921875 C-9.65090904 10.69544634 -8.63789552 9.69153268 -7.625 8.6875 C-7.11710937 8.18798828 -6.60921875 7.68847656 -6.0859375 7.17382812 C-3.77145867 4.87457613 -1.81652517 2.72478775 0 0 Z " fill="#2C95A4" transform="translate(51,690)"/>
</svg>
