<svg id="Layer_1" data-name="Layer 1" xmlns="http://www.w3.org/2000/svg" xmlns:xlink="http://www.w3.org/1999/xlink" viewBox="0 0 94.35 94.31"><defs><style>.cls-1{fill:#414141;fill-rule:evenodd;}.cls-2{fill:url(#linear-gradient);}.cls-3{fill:url(#linear-gradient-2);}.cls-4{fill:url(#linear-gradient-3);}.cls-5{fill:url(#linear-gradient-4);}.cls-6{fill:#fff;}</style><linearGradient id="linear-gradient" x1="31.98" y1="81.63" x2="71.7" y2="41.91" gradientUnits="userSpaceOnUse"><stop offset="0.02" stop-color="#1cb3c7"/><stop offset="0.78" stop-color="#1da0c8"/><stop offset="1" stop-color="#1d9ac8"/></linearGradient><linearGradient id="linear-gradient-2" x1="23" y1="27.58" x2="80.23" y2="27.58" gradientUnits="userSpaceOnUse"><stop offset="0" stop-color="#f38039"/><stop offset="1" stop-color="#f05e39"/></linearGradient><linearGradient id="linear-gradient-3" x1="17.9" y1="8.74" x2="39.5" y2="8.74" gradientUnits="userSpaceOnUse"><stop offset="0" stop-color="#f47f39"/><stop offset="1" stop-color="#f38039"/></linearGradient><linearGradient id="linear-gradient-4" x1="24.47" y1="89.12" x2="32.14" y2="81.45" gradientUnits="userSpaceOnUse"><stop offset="0.06" stop-color="#15b1c7"/><stop offset="1" stop-color="#1cb3c7"/></linearGradient></defs><title>ds3_octagon</title><path class="cls-1" d="M97,47.28,86.15,22.16A11.39,11.39,0,0,0,79.9,16.1L54.41,6a11.33,11.33,0,0,0-8.69.14L20.55,17.07a11.39,11.39,0,0,0-6.05,6.24L4.41,48.79a11.36,11.36,0,0,0,.14,8.7L15.43,82.62a11.34,11.34,0,0,0,6.25,6L47.17,98.75a11.38,11.38,0,0,0,8.69-.15L81,87.71a11.4,11.4,0,0,0,6-6.25L97.17,56A11.38,11.38,0,0,0,97,47.28Zm-3.71,8.41L84.06,79.05a10.4,10.4,0,0,1-5.55,5.73l-23.07,10a10.48,10.48,0,0,1-8,.13L24.1,85.66a10.43,10.43,0,0,1-5.73-5.55l-10-23a10.46,10.46,0,0,1-.13-8l9.26-23.36A10.4,10.4,0,0,1,23.07,20L46.14,10a10.43,10.43,0,0,1,8-.13l23.37,9.24a10.4,10.4,0,0,1,5.73,5.55l10,23A10.41,10.41,0,0,1,93.32,55.69Z" transform="translate(-3.61 -5.24)"/><path class="cls-1" d="M90.37,48.24l-9.32-21.5a9.72,9.72,0,0,0-5.35-5.19L53.89,12.93a9.78,9.78,0,0,0-7.44.12L24.91,22.38a9.77,9.77,0,0,0-5.18,5.35L11.1,49.53A9.76,9.76,0,0,0,11.21,57l9.32,21.5a9.72,9.72,0,0,0,5.35,5.19l21.81,8.62a9.78,9.78,0,0,0,7.44-.12l21.54-9.33a9.71,9.71,0,0,0,5.18-5.35l8.63-21.8A9.72,9.72,0,0,0,90.37,48.24Z" transform="translate(-3.61 -5.24)"/><polygon class="cls-2" points="21.84 78.27 41.19 85.91 80.3 46.8 53.3 46.8 21.84 78.27"/><polygon class="cls-3" points="23 16.39 53.24 46.83 80.23 46.92 41.81 8.24 23 16.39"/><polygon class="cls-4" points="17.9 11.41 20.71 14.22 39.5 6.09 36.71 3.26 17.9 11.41"/><polygon class="cls-5" points="17.07 83.02 36.41 90.67 39.24 87.83 19.93 80.19 17.07 83.02"/><path class="cls-6" d="M31.88,39.41a8,8,0,0,1,8,8V58.3a8,8,0,0,1-7.14,7.92,2,2,0,0,1-.31,0H25.69a1.26,1.26,0,0,1-.94-.41,1.23,1.23,0,0,1-.4-.94V40.75a1.37,1.37,0,0,1,1.34-1.34Zm5.24,8a5.26,5.26,0,0,0-5.24-5.24H27.06V63.54h4.82a5.26,5.26,0,0,0,5.24-5.24Z" transform="translate(-3.61 -5.24)"/><path class="cls-6" d="M58.6,46.38a1.25,1.25,0,0,1-.41.83,1.28,1.28,0,0,1-1,.4,1.23,1.23,0,0,1-.94-.4,1.25,1.25,0,0,1-.41-.83v-.6a3.75,3.75,0,0,0-1.39-2.93,5,5,0,0,0-3.37-1.21,4.89,4.89,0,0,0-3.35,1.21,3.78,3.78,0,0,0-1.39,2.93v1.31a3.61,3.61,0,0,0,.31,1.39,3.68,3.68,0,0,0,1.87,1.79,10.39,10.39,0,0,0,1.35.52l.71.21.73.19.5.12.49.13a9.34,9.34,0,0,1,5.06,3,5.74,5.74,0,0,1,1.2,3.6v1.75a6.4,6.4,0,0,1-2.2,4.86,7.94,7.94,0,0,1-10.54,0,6.39,6.39,0,0,1-2.19-4.86V58.09a1.23,1.23,0,0,1,.4-.94,1.26,1.26,0,0,1,1-.41,1.28,1.28,0,0,1,1,.41,1.23,1.23,0,0,1,.4.94v1.73a3.77,3.77,0,0,0,1.39,2.93,5.24,5.24,0,0,0,6.7,0,3.73,3.73,0,0,0,1.41-2.93V58.07A3.11,3.11,0,0,0,55.17,56a6.94,6.94,0,0,0-3.57-1.95l-.92-.25-.42-.11-.45-.12-.9-.27a10.53,10.53,0,0,1-1.83-.75,6.12,6.12,0,0,1-3.41-5.47V45.78a6.37,6.37,0,0,1,2.19-4.85,7.91,7.91,0,0,1,10.54,0,6.38,6.38,0,0,1,2.2,4.85Z" transform="translate(-3.61 -5.24)"/><path class="cls-6" d="M70.39,38.92A8.08,8.08,0,0,1,76,41a6.59,6.59,0,0,1,2.33,5.09v.56A6.52,6.52,0,0,1,77.42,50a7.26,7.26,0,0,1-2.49,2.5,7.62,7.62,0,0,1,1,.81,7,7,0,0,1,2.36,5.3v.58A6.92,6.92,0,0,1,76,64.5a8.38,8.38,0,0,1-11.22,0,6.94,6.94,0,0,1-2.33-5.24v-.29a1.26,1.26,0,0,1,.41-.95,1.23,1.23,0,0,1,.94-.4,1.25,1.25,0,0,1,1,.4,1.26,1.26,0,0,1,.41.95v.29a4.33,4.33,0,0,0,1.54,3.33,5.36,5.36,0,0,0,3.7,1.38,5.29,5.29,0,0,0,3.75-1.42,4.32,4.32,0,0,0,1.49-3.29v-.58a4.37,4.37,0,0,0-1.49-3.32,5.36,5.36,0,0,0-3.75-1.42,1.32,1.32,0,0,1-1-.39,1.34,1.34,0,0,1-.39-1V52.5a1.34,1.34,0,0,1,.39-1,1.32,1.32,0,0,1,1-.39,5.57,5.57,0,0,0,3.72-1.3,4.11,4.11,0,0,0,1.52-3.18v-.56a4.05,4.05,0,0,0-1.52-3.18,5.84,5.84,0,0,0-7.42,0,4,4,0,0,0-1.54,3.18v.25a1.36,1.36,0,0,1-2.72,0v-.25A6.62,6.62,0,0,1,64.76,41,8.13,8.13,0,0,1,70.39,38.92Z" transform="translate(-3.61 -5.24)"/></svg>